<mxfile host="app.diagrams.net" modified="2021-12-28T09:04:20.853Z" agent="5.0 (Macintosh; Intel Mac OS X 10_15_7) AppleWebKit/605.1.15 (KHTML, like Gecko) Version/15.2 Safari/605.1.15" etag="Q_zC71ll17RNRqyB92nK" version="16.1.0" type="github">
  <diagram id="hX-ZhJ2K5Q5VnK9N8v0G" name="Page-1">
    <mxGraphModel dx="830" dy="632" grid="1" gridSize="10" guides="1" tooltips="1" connect="1" arrows="1" fold="1" page="1" pageScale="1" pageWidth="850" pageHeight="1100" math="0" shadow="0">
      <root>
        <mxCell id="0" />
        <mxCell id="1" parent="0" />
        <mxCell id="lPatiqY514Iy1Z4QMgmo-2" style="edgeStyle=orthogonalEdgeStyle;rounded=0;orthogonalLoop=1;jettySize=auto;html=1;entryX=0.5;entryY=0;entryDx=0;entryDy=0;" edge="1" parent="1" source="6HOCwGl0xgq-ZaHQDZ0h-1" target="lPatiqY514Iy1Z4QMgmo-1">
          <mxGeometry relative="1" as="geometry" />
        </mxCell>
        <mxCell id="6HOCwGl0xgq-ZaHQDZ0h-1" value="Models" style="ellipse;whiteSpace=wrap;html=1;" parent="1" vertex="1">
          <mxGeometry x="351.33" y="270" width="120" height="80" as="geometry" />
        </mxCell>
        <mxCell id="6HOCwGl0xgq-ZaHQDZ0h-11" style="edgeStyle=orthogonalEdgeStyle;rounded=0;orthogonalLoop=1;jettySize=auto;html=1;exitX=0.5;exitY=1;exitDx=0;exitDy=0;" parent="1" source="6HOCwGl0xgq-ZaHQDZ0h-6" target="6HOCwGl0xgq-ZaHQDZ0h-7" edge="1">
          <mxGeometry relative="1" as="geometry" />
        </mxCell>
        <mxCell id="6HOCwGl0xgq-ZaHQDZ0h-6" value="generate a population of N inputs&amp;nbsp;" style="rounded=0;whiteSpace=wrap;html=1;" parent="1" vertex="1">
          <mxGeometry x="351.33" y="940" width="120" height="60" as="geometry" />
        </mxCell>
        <mxCell id="6HOCwGl0xgq-ZaHQDZ0h-12" style="edgeStyle=orthogonalEdgeStyle;rounded=0;orthogonalLoop=1;jettySize=auto;html=1;exitX=0.5;exitY=1;exitDx=0;exitDy=0;entryX=0.5;entryY=0;entryDx=0;entryDy=0;" parent="1" source="6HOCwGl0xgq-ZaHQDZ0h-7" target="6HOCwGl0xgq-ZaHQDZ0h-8" edge="1">
          <mxGeometry relative="1" as="geometry" />
        </mxCell>
        <mxCell id="6HOCwGl0xgq-ZaHQDZ0h-7" value="Calc fitness function for each input" style="rounded=0;whiteSpace=wrap;html=1;" parent="1" vertex="1">
          <mxGeometry x="351.33" y="1070" width="120" height="60" as="geometry" />
        </mxCell>
        <mxCell id="6HOCwGl0xgq-ZaHQDZ0h-13" style="edgeStyle=orthogonalEdgeStyle;rounded=0;orthogonalLoop=1;jettySize=auto;html=1;exitX=0.5;exitY=1;exitDx=0;exitDy=0;entryX=0.5;entryY=0;entryDx=0;entryDy=0;" parent="1" source="6HOCwGl0xgq-ZaHQDZ0h-8" target="6HOCwGl0xgq-ZaHQDZ0h-9" edge="1">
          <mxGeometry relative="1" as="geometry">
            <mxPoint x="411.33" y="1300" as="targetPoint" />
          </mxGeometry>
        </mxCell>
        <mxCell id="6HOCwGl0xgq-ZaHQDZ0h-8" value="select top m inputs" style="rounded=0;whiteSpace=wrap;html=1;" parent="1" vertex="1">
          <mxGeometry x="351.33" y="1190" width="120" height="60" as="geometry" />
        </mxCell>
        <mxCell id="6HOCwGl0xgq-ZaHQDZ0h-14" style="edgeStyle=orthogonalEdgeStyle;rounded=0;orthogonalLoop=1;jettySize=auto;html=1;exitX=0.5;exitY=1;exitDx=0;exitDy=0;" parent="1" source="6HOCwGl0xgq-ZaHQDZ0h-9" target="6HOCwGl0xgq-ZaHQDZ0h-10" edge="1">
          <mxGeometry relative="1" as="geometry">
            <mxPoint x="411.33" y="1400" as="sourcePoint" />
          </mxGeometry>
        </mxCell>
        <mxCell id="6HOCwGl0xgq-ZaHQDZ0h-9" value="crossover between m inputs &lt;br&gt;to make n inputs" style="rounded=0;whiteSpace=wrap;html=1;" parent="1" vertex="1">
          <mxGeometry x="337.58" y="1310" width="147.5" height="70" as="geometry" />
        </mxCell>
        <mxCell id="6HOCwGl0xgq-ZaHQDZ0h-15" style="edgeStyle=orthogonalEdgeStyle;rounded=0;orthogonalLoop=1;jettySize=auto;html=1;exitX=0.5;exitY=1;exitDx=0;exitDy=0;" parent="1" source="6HOCwGl0xgq-ZaHQDZ0h-10" edge="1">
          <mxGeometry relative="1" as="geometry">
            <mxPoint x="411.50647058823535" y="900" as="targetPoint" />
            <Array as="points">
              <mxPoint x="411.33" y="1520" />
              <mxPoint x="226.32999999999998" y="1520" />
              <mxPoint x="226.32999999999998" y="900" />
            </Array>
          </mxGeometry>
        </mxCell>
        <mxCell id="6HOCwGl0xgq-ZaHQDZ0h-10" value="mutation of each input" style="rounded=0;whiteSpace=wrap;html=1;" parent="1" vertex="1">
          <mxGeometry x="351.33" y="1430" width="120" height="60" as="geometry" />
        </mxCell>
        <mxCell id="6HOCwGl0xgq-ZaHQDZ0h-21" value="" style="endArrow=none;dashed=1;html=1;rounded=0;" parent="1" edge="1">
          <mxGeometry width="50" height="50" relative="1" as="geometry">
            <mxPoint x="146.39" y="840" as="sourcePoint" />
            <mxPoint x="686.39" y="840" as="targetPoint" />
          </mxGeometry>
        </mxCell>
        <mxCell id="6HOCwGl0xgq-ZaHQDZ0h-22" value="" style="endArrow=none;dashed=1;html=1;rounded=0;" parent="1" edge="1">
          <mxGeometry width="50" height="50" relative="1" as="geometry">
            <mxPoint x="146.39" y="1550" as="sourcePoint" />
            <mxPoint x="146.39" y="840" as="targetPoint" />
          </mxGeometry>
        </mxCell>
        <mxCell id="6HOCwGl0xgq-ZaHQDZ0h-23" value="" style="endArrow=none;dashed=1;html=1;rounded=0;" parent="1" edge="1">
          <mxGeometry width="50" height="50" relative="1" as="geometry">
            <mxPoint x="686.39" y="1550" as="sourcePoint" />
            <mxPoint x="686.39" y="840" as="targetPoint" />
          </mxGeometry>
        </mxCell>
        <mxCell id="6HOCwGl0xgq-ZaHQDZ0h-24" value="" style="endArrow=none;dashed=1;html=1;rounded=0;" parent="1" edge="1">
          <mxGeometry width="50" height="50" relative="1" as="geometry">
            <mxPoint x="141.1" y="1550" as="sourcePoint" />
            <mxPoint x="686.39" y="1550" as="targetPoint" />
          </mxGeometry>
        </mxCell>
        <mxCell id="1Tv84CjWzPSOuGYvP6sn-4" style="edgeStyle=orthogonalEdgeStyle;rounded=0;orthogonalLoop=1;jettySize=auto;html=1;exitX=0.5;exitY=1;exitDx=0;exitDy=0;entryX=0.5;entryY=0;entryDx=0;entryDy=0;" parent="1" source="1Tv84CjWzPSOuGYvP6sn-1" target="1Tv84CjWzPSOuGYvP6sn-3" edge="1">
          <mxGeometry relative="1" as="geometry" />
        </mxCell>
        <mxCell id="1Tv84CjWzPSOuGYvP6sn-1" value="Mutate hyperparameters" style="rounded=0;whiteSpace=wrap;html=1;" parent="1" vertex="1">
          <mxGeometry x="351.34" y="490" width="120" height="60" as="geometry" />
        </mxCell>
        <mxCell id="1Tv84CjWzPSOuGYvP6sn-9" style="edgeStyle=orthogonalEdgeStyle;rounded=0;orthogonalLoop=1;jettySize=auto;html=1;exitX=0.5;exitY=1;exitDx=0;exitDy=0;entryX=0.5;entryY=0;entryDx=0;entryDy=0;" parent="1" source="1Tv84CjWzPSOuGYvP6sn-3" target="1Tv84CjWzPSOuGYvP6sn-8" edge="1">
          <mxGeometry relative="1" as="geometry" />
        </mxCell>
        <mxCell id="1Tv84CjWzPSOuGYvP6sn-3" value="Calculate change of coverage" style="rounded=0;whiteSpace=wrap;html=1;" parent="1" vertex="1">
          <mxGeometry x="351.33" y="580" width="120" height="60" as="geometry" />
        </mxCell>
        <mxCell id="1Tv84CjWzPSOuGYvP6sn-10" style="edgeStyle=orthogonalEdgeStyle;rounded=0;orthogonalLoop=1;jettySize=auto;html=1;exitX=0.5;exitY=1;exitDx=0;exitDy=0;entryX=0.5;entryY=0;entryDx=0;entryDy=0;" parent="1" source="1Tv84CjWzPSOuGYvP6sn-8" target="6HOCwGl0xgq-ZaHQDZ0h-6" edge="1">
          <mxGeometry relative="1" as="geometry" />
        </mxCell>
        <mxCell id="1Tv84CjWzPSOuGYvP6sn-11" style="edgeStyle=orthogonalEdgeStyle;rounded=0;orthogonalLoop=1;jettySize=auto;html=1;exitX=0;exitY=0.5;exitDx=0;exitDy=0;" parent="1" source="1Tv84CjWzPSOuGYvP6sn-8" edge="1">
          <mxGeometry relative="1" as="geometry">
            <mxPoint x="410" y="380" as="targetPoint" />
            <Array as="points">
              <mxPoint x="180" y="735" />
              <mxPoint x="180" y="380" />
            </Array>
          </mxGeometry>
        </mxCell>
        <mxCell id="1Tv84CjWzPSOuGYvP6sn-8" value="&lt;span&gt;pass to&amp;nbsp; thresold of change of coverage&lt;/span&gt;" style="rhombus;whiteSpace=wrap;html=1;" parent="1" vertex="1">
          <mxGeometry x="311" y="680" width="200.67" height="110" as="geometry" />
        </mxCell>
        <mxCell id="1Tv84CjWzPSOuGYvP6sn-12" value="" style="endArrow=none;dashed=1;html=1;dashPattern=1 3;strokeWidth=2;rounded=0;" parent="1" edge="1">
          <mxGeometry width="50" height="50" relative="1" as="geometry">
            <mxPoint x="140" y="360" as="sourcePoint" />
            <mxPoint x="680" y="360" as="targetPoint" />
          </mxGeometry>
        </mxCell>
        <mxCell id="1Tv84CjWzPSOuGYvP6sn-13" value="" style="endArrow=none;dashed=1;html=1;dashPattern=1 3;strokeWidth=2;rounded=0;" parent="1" edge="1">
          <mxGeometry width="50" height="50" relative="1" as="geometry">
            <mxPoint x="141.33" y="800" as="sourcePoint" />
            <mxPoint x="681.33" y="800" as="targetPoint" />
          </mxGeometry>
        </mxCell>
        <mxCell id="1Tv84CjWzPSOuGYvP6sn-14" value="" style="endArrow=none;dashed=1;html=1;dashPattern=1 3;strokeWidth=2;rounded=0;" parent="1" edge="1">
          <mxGeometry width="50" height="50" relative="1" as="geometry">
            <mxPoint x="140" y="800" as="sourcePoint" />
            <mxPoint x="140" y="360" as="targetPoint" />
          </mxGeometry>
        </mxCell>
        <mxCell id="1Tv84CjWzPSOuGYvP6sn-15" value="" style="endArrow=none;dashed=1;html=1;dashPattern=1 3;strokeWidth=2;rounded=0;" parent="1" edge="1">
          <mxGeometry width="50" height="50" relative="1" as="geometry">
            <mxPoint x="680" y="800" as="sourcePoint" />
            <mxPoint x="680" y="360" as="targetPoint" />
            <Array as="points">
              <mxPoint x="680" y="580" />
            </Array>
          </mxGeometry>
        </mxCell>
        <mxCell id="lPatiqY514Iy1Z4QMgmo-3" style="edgeStyle=orthogonalEdgeStyle;rounded=0;orthogonalLoop=1;jettySize=auto;html=1;" edge="1" parent="1" source="lPatiqY514Iy1Z4QMgmo-1" target="1Tv84CjWzPSOuGYvP6sn-1">
          <mxGeometry relative="1" as="geometry" />
        </mxCell>
        <mxCell id="lPatiqY514Iy1Z4QMgmo-1" value="Create table of hyperparameter" style="rounded=0;whiteSpace=wrap;html=1;" vertex="1" parent="1">
          <mxGeometry x="351" y="400" width="120" height="60" as="geometry" />
        </mxCell>
      </root>
    </mxGraphModel>
  </diagram>
</mxfile>
